<svg viewBox="0 0 38 32" fill="none" xmlns="http://www.w3.org/2000/svg"><path fill-rule="evenodd" clip-rule="evenodd" d="M26.378 29.785a.5.5 0 0 0 .016.157l-7.354 2.005a1.5 1.5 0 0 1-.787 0L10.9 29.942a.496.496 0 0 0 .017-.144l-.332-13.299h1.945a.998.998 0 1 0 0-1.996h-1.995L10.172.009l8.126 2.032c.23.057.47.059.7.006L27.867 0l-.692 13.82-2.02-2.02a.998.998 0 1 0-1.412 1.412l2.47 2.469-2.47 2.468a.999.999 0 0 0 1.412 1.412l1.824-1.824-.602 12.048Zm-8.893-15.282a.998.998 0 1 0 0 1.996h2.478a.998.998 0 1 0 0-1.996h-2.478Z" fill="url(#a)"/><path d="M9.539 14.632 9.174.035 1.056 2.533A1.496 1.496 0 0 0 .002 4.04l.728 14.2 1.921-.787a.998.998 0 0 1 .757 1.847l-2.34.96a.992.992 0 0 1-.23.063l.507 9.914a1.499 1.499 0 0 0 1.858 1.376l6.73-1.683a.5.5 0 0 1-.014-.108l-.327-13.056-1.503.617a.998.998 0 1 1-.757-1.848l2.207-.904v.001Z" fill="url(#b)"/><path d="m30.093 19.56-2.1-2.099-.619 12.374a.493.493 0 0 1-.014.096l6.73 1.683a1.495 1.495 0 0 0 1.858-1.376l1.345-26.226a1.496 1.496 0 0 0-1.022-1.496L28.864.046l-.683 13.667 1.912-1.912a.998.998 0 0 1 1.412 1.411l-2.469 2.469 2.468 2.468a.998.998 0 0 1-1.41 1.412v-.001Z" fill="url(#c)"/><defs><radialGradient id="a" cx="0" cy="0" r="1" gradientUnits="userSpaceOnUse" gradientTransform="matrix(-37.2946 0 0 -32 37.295 32)"><stop stop-color="#EC991C"/><stop offset="1" stop-color="#E9B213"/></radialGradient><radialGradient id="b" cx="0" cy="0" r="1" gradientUnits="userSpaceOnUse" gradientTransform="matrix(-37.2946 0 0 -32 37.295 32)"><stop stop-color="#EC991C"/><stop offset="1" stop-color="#E9B213"/></radialGradient><radialGradient id="c" cx="0" cy="0" r="1" gradientUnits="userSpaceOnUse" gradientTransform="matrix(-37.2946 0 0 -32 37.295 32)"><stop stop-color="#EC991C"/><stop offset="1" stop-color="#E9B213"/></radialGradient></defs></svg>