<svg width="68" height="17" viewBox="0 0 68 17" fill="none" xmlns="http://www.w3.org/2000/svg"><g fill="#fff"><path d="M17.942 7.322 14.164.757A1.511 1.511 0 0 0 12.854 0H5.297c-.529 0-1.033.278-1.31.757L.21 7.322a1.484 1.484 0 0 0 0 1.515L3.987 15.4c.277.48.781.757 1.31.757h7.557c.529 0 1.033-.277 1.31-.757l3.778-6.564a1.484 1.484 0 0 0 0-1.515ZM31.37 3.282h1.636v9.594h-1.26l-5.163-6.69v6.69h-1.637V3.282h1.26l5.163 6.69v-6.69ZM36.28 12.876V3.282h1.764v9.594H36.28ZM49.251 3.282h1.386v9.594h-1.512V6.943l-2.57 5.933h-1.133l-2.594-5.933v5.933h-1.512V3.282h1.386l3.275 7.524 3.274-7.524ZM53.912 12.876V3.282h1.763v9.594h-1.763ZM67.463 10.68a4.034 4.034 0 0 1-2.015 1.918 5.2 5.2 0 0 0 .756 1.035 8.83 8.83 0 0 0 1.008.935l-1.21.959a6.333 6.333 0 0 1-1.209-1.11 7.454 7.454 0 0 1-1.032-1.44h-.404a4.804 4.804 0 0 1-2.493-.606 3.929 3.929 0 0 1-1.612-1.717 5.753 5.753 0 0 1-.555-2.6 5.753 5.753 0 0 1 .555-2.6 3.928 3.928 0 0 1 1.612-1.718 5.537 5.537 0 0 1 4.962 0c.705.404 1.26.985 1.612 1.717.378.808.58 1.717.554 2.6a5.462 5.462 0 0 1-.529 2.627Zm-6.247 0c1.134 1.186 2.998 1.237 4.157.1l.1-.1c.504-.607.756-1.465.756-2.626 0-1.162-.252-2.02-.756-2.626-1.133-1.187-3.022-1.212-4.206-.076l-.076.076c-.504.606-.756 1.49-.756 2.626s.278 2.02.781 2.626Z"/></g></svg>